<svg width="14" height="26" viewBox="0 0 14 26" fill="none" xmlns="http://www.w3.org/2000/svg">
<path d="M10.1034 0C8.41155 0 6.78895 0.694201 5.59259 1.92989C4.39624 3.16557 3.72414 4.84152 3.72414 6.58904V10.2575H0.310345C0.138946 10.2575 0 10.401 0 10.5781V15.4219C0 15.599 0.138946 15.7425 0.310345 15.7425H3.72414V25.6795C3.72414 25.8565 3.86308 26 4.03448 26H8.72414C8.89554 26 9.03448 25.8565 9.03448 25.6795V15.7425H12.4785C12.6209 15.7425 12.7451 15.6424 12.7796 15.4997L13.952 10.6558C14.001 10.4535 13.8528 10.2575 13.6509 10.2575H9.03448V6.58904C9.03448 6.29621 9.14711 6.01538 9.34758 5.80832C9.54805 5.60126 9.81994 5.48493 10.1034 5.48493H13.6897C13.8611 5.48493 14 5.34142 14 5.16438V0.320548C14 0.143514 13.8611 0 13.6897 0H10.1034Z" fill="black"/>
</svg>
