<svg width="22" height="22" viewBox="0 0 22 22" fill="none" xmlns="http://www.w3.org/2000/svg">
<path d="M2.49333 0C1.1163 0 0 1.08731 0 2.42857C0 3.76983 1.1163 4.85714 2.49333 4.85714C3.87036 4.85714 4.98667 3.76983 4.98667 2.42857C4.98667 1.08731 3.87036 0 2.49333 0Z" fill="black"/>
<path d="M0.146667 6.85714C0.0656649 6.85714 0 6.9211 0 7V21.8571C0 21.936 0.0656649 22 0.146667 22H4.84C4.921 22 4.98667 21.936 4.98667 21.8571V7C4.98667 6.9211 4.921 6.85714 4.84 6.85714H0.146667Z" fill="black"/>
<path d="M7.77333 6.85714C7.69233 6.85714 7.62667 6.9211 7.62667 7V21.8571C7.62667 21.936 7.69233 22 7.77333 22H12.4667C12.5477 22 12.6133 21.936 12.6133 21.8571V13.8571C12.6133 13.2888 12.8451 12.7438 13.2577 12.3419C13.6703 11.9401 14.2299 11.7143 14.8133 11.7143C15.3968 11.7143 15.9564 11.9401 16.369 12.3419C16.7815 12.7438 17.0133 13.2888 17.0133 13.8571V21.8571C17.0133 21.936 17.079 22 17.16 22H21.8533C21.9343 22 22 21.936 22 21.8571V12.006C22 9.23257 19.5235 7.06285 16.6905 7.31371C15.8168 7.39108 14.9529 7.60264 14.1463 7.93937L12.6133 8.57927V7C12.6133 6.9211 12.5477 6.85714 12.4667 6.85714H7.77333Z" fill="black"/>
</svg>
