<svg width="26" height="21" viewBox="0 0 26 21" fill="none" xmlns="http://www.w3.org/2000/svg">
<path d="M25.9748 2.87276C26.0521 2.76858 25.938 2.63406 25.8144 2.6804C24.9364 3.00973 24.0187 3.23193 23.0827 3.34143C24.1249 2.73892 24.9292 1.82175 25.3752 0.735891C25.4206 0.625275 25.2958 0.526492 25.1881 0.584036C24.2194 1.10169 23.1747 1.47445 22.0895 1.68913C22.044 1.69811 21.9972 1.68315 21.9653 1.65058C21.1509 0.819062 20.0789 0.265422 18.9102 0.0741029C17.717 -0.121235 16.4905 0.0721772 15.4232 0.624006C14.3558 1.17584 13.5079 2.05487 13.0124 3.12324C12.5414 4.13906 12.4142 5.27141 12.6466 6.3589C12.6646 6.44328 12.5964 6.52294 12.5075 6.5176C10.396 6.3907 8.33296 5.84726 6.44547 4.92C4.56277 3.99511 2.8956 2.70842 1.54547 1.1393C1.48555 1.06966 1.37199 1.07868 1.32833 1.15884C0.90822 1.93025 0.688259 2.79004 0.688857 3.66389C0.687151 4.53373 0.907752 5.39048 1.33102 6.15786C1.75429 6.92524 2.36708 7.57944 3.11485 8.06221C2.32184 8.04133 1.54428 7.85162 0.837147 7.50767C0.746016 7.46335 0.636703 7.52646 0.641443 7.62505C0.696586 8.77201 1.13174 9.92348 1.88495 10.8069C2.68648 11.747 3.799 12.3904 5.03432 12.6282C4.55879 12.7682 4.06509 12.8421 3.56806 12.8475C3.29755 12.8444 3.02756 12.8251 2.75966 12.7897C2.66033 12.7765 2.57922 12.8678 2.614 12.9588C2.98245 13.9229 3.63337 14.7642 4.48924 15.3783C5.40425 16.0349 6.50801 16.3991 7.64693 16.4203C5.72373 17.8846 3.3493 18.6838 0.902131 18.6904C0.650676 18.6912 0.399333 18.6833 0.148582 18.6668C0.00727683 18.6575 -0.0577117 18.8396 0.0640885 18.9096C2.44845 20.2788 5.17373 21.0025 7.95351 20.9992C10.0059 21.0198 12.0419 20.6445 13.9427 19.8952C15.8435 19.1459 17.5709 18.0376 19.024 16.6351C20.4772 15.2325 21.627 13.5638 22.4063 11.7265C23.1855 9.88915 23.5786 7.91997 23.5625 5.93399V5.31509C23.5625 5.27437 23.5824 5.23607 23.616 5.21153C24.5201 4.55096 25.3152 3.76231 25.9748 2.87276Z" fill="black"/>
</svg>
